<svg width="30" height="19" viewBox="0 0 30 19" fill="none" xmlns="http://www.w3.org/2000/svg">
<path d="M29.11 0.794126V9.2648C29.11 9.47542 29.0263 9.67741 28.8774 9.82634C28.7285 9.97526 28.5265 10.0589 28.3159 10.0589C28.1053 10.0589 27.9033 9.97526 27.7543 9.82634C27.6054 9.67741 27.5217 9.47542 27.5217 9.2648V2.71326L16.1657 14.056C16.094 14.1313 16.0078 14.1912 15.9122 14.2322C15.8167 14.2732 15.7138 14.2943 15.6098 14.2943C15.5059 14.2943 15.403 14.2732 15.3075 14.2322C15.2119 14.1912 15.1257 14.1313 15.054 14.056L10.3157 9.33098L1.34203 18.2914C1.26903 18.3644 1.18237 18.4223 1.08699 18.4618C0.991611 18.5013 0.889384 18.5216 0.786145 18.5216C0.682907 18.5216 0.58068 18.5013 0.485301 18.4618C0.389921 18.4223 0.303257 18.3644 0.230257 18.2914C0.157256 18.2184 0.0993494 18.1317 0.0598418 18.0363C0.0203343 17.9409 0 17.8387 0 17.7355C0 17.6322 0.0203343 17.53 0.0598418 17.4346C0.0993494 17.3393 0.157256 17.2526 0.230257 17.1796L9.75978 7.65008C9.83148 7.5748 9.91772 7.51486 10.0133 7.47391C10.1088 7.43296 10.2117 7.41184 10.3157 7.41184C10.4196 7.41184 10.5225 7.43296 10.6181 7.47391C10.7136 7.51486 10.7999 7.5748 10.8716 7.65008L15.6098 12.3751L26.3967 1.58825H19.8452C19.6346 1.58825 19.4326 1.50459 19.2837 1.35566C19.1347 1.20673 19.0511 1.00474 19.0511 0.794126C19.0511 0.583511 19.1347 0.381522 19.2837 0.232594C19.4326 0.0836665 19.6346 0 19.8452 0H28.3159C28.5265 0 28.7285 0.0836665 28.8774 0.232594C29.0263 0.381522 29.11 0.583511 29.11 0.794126V0.794126Z" fill="#3BDB38"/>
</svg>
