<svg width="30" height="30" viewBox="0 0 30 30" fill="none" xmlns="http://www.w3.org/2000/svg">
<path d="M14.855 0C18.7948 0 22.5732 1.56508 25.3591 4.35093C28.1449 7.13678 29.71 10.9152 29.71 14.855C29.71 18.7948 28.1449 22.5732 25.3591 25.3591C22.5732 28.1449 18.7948 29.71 14.855 29.71C10.9152 29.71 7.13678 28.1449 4.35093 25.3591C1.56508 22.5732 0 18.7948 0 14.855C0 10.9152 1.56508 7.13678 4.35093 4.35093C7.13678 1.56508 10.9152 0 14.855 0ZM14.855 1.56368C11.3299 1.56368 7.94923 2.96402 5.45662 5.45662C2.96402 7.94923 1.56368 11.3299 1.56368 14.855C1.56368 18.3801 2.96402 21.7608 5.45662 24.2534C7.94923 26.746 11.3299 28.1463 14.855 28.1463C18.3801 28.1463 21.7608 26.746 24.2534 24.2534C26.746 21.7608 28.1463 18.3801 28.1463 14.855C28.1463 11.3299 26.746 7.94923 24.2534 5.45662C21.7608 2.96402 18.3801 1.56368 14.855 1.56368ZM14.0732 7.81842V10.9458H15.6368V7.81842H14.0732ZM14.0732 14.0732V21.8916H15.6368V14.0732H14.0732Z" fill="#3BDB38"/>
</svg>
