<svg width="34" height="34" viewBox="0 0 34 34" fill="none" xmlns="http://www.w3.org/2000/svg">
<ellipse cx="17" cy="17" rx="17" ry="16.5" fill="#3BDB38"/>
<path d="M17 6C19.9174 6 22.7153 7.15893 24.7782 9.22183C26.8411 11.2847 28 14.0826 28 17C28 19.9174 26.8411 22.7153 24.7782 24.7782C22.7153 26.8411 19.9174 28 17 28C14.0826 28 11.2847 26.8411 9.22183 24.7782C7.15893 22.7153 6 19.9174 6 17C6 14.0826 7.15893 11.2847 9.22183 9.22183C11.2847 7.15893 14.0826 6 17 6V6ZM17 7.15789C14.3897 7.15789 11.8863 8.19483 10.0406 10.0406C8.19483 11.8863 7.15789 14.3897 7.15789 17C7.15789 19.6103 8.19483 22.1137 10.0406 23.9594C11.8863 25.8052 14.3897 26.8421 17 26.8421C19.6103 26.8421 22.1137 25.8052 23.9594 23.9594C25.8052 22.1137 26.8421 19.6103 26.8421 17C26.8421 14.3897 25.8052 11.8863 23.9594 10.0406C22.1137 8.19483 19.6103 7.15789 17 7.15789ZM16.4211 11.7895V14.1053H17.5789V11.7895H16.4211ZM16.4211 16.4211V22.2105H17.5789V16.4211H16.4211Z" fill="white"/>
</svg>
