<svg width="31" height="34" viewBox="0 0 31 34" fill="none" xmlns="http://www.w3.org/2000/svg">
<path d="M15.3218 18.1032C16.6252 18.1032 17.6858 17.0428 17.6858 15.7394C17.6858 14.4359 16.6252 13.3756 15.3218 13.3756C14.0183 13.3756 12.958 14.4359 12.958 15.7394C12.958 17.0428 14.0183 18.1032 15.3218 18.1032ZM15.3218 14.5239C15.9921 14.5239 16.5375 15.0691 16.5375 15.7394C16.5375 16.4097 15.9921 16.955 15.3218 16.955C14.6515 16.955 14.1062 16.4097 14.1062 15.7394C14.1062 15.0691 14.6515 14.5239 15.3218 14.5239Z" fill="#3BDB38"/>
<path d="M24.7068 15.7623C26.705 14.0685 28.2531 12.3427 28.9614 10.8203C28.7833 10.8564 28.5989 10.8755 28.4102 10.8755C28.1595 10.8755 27.9167 10.8415 27.6854 10.7788C27.2982 11.4528 26.7126 12.2154 25.9464 13.0273C25.3242 13.6864 24.6062 14.3565 23.8092 15.0256C22.8191 14.2406 21.7315 13.463 20.5704 12.7115C20.4888 11.4438 20.3568 10.1944 20.1756 9.00316C22.2756 8.27492 24.1708 7.85957 25.6499 7.82912C25.6906 7.41283 25.8238 7.02355 26.0285 6.68148C25.9608 6.67993 25.8936 6.6779 25.8239 6.6779C24.251 6.6779 22.224 7.09974 19.9829 7.86088C19.1543 3.3955 17.5885 0 15.3588 0C13.129 0 11.5632 3.39548 10.7347 7.86088C8.49348 7.09974 6.46657 6.6779 4.89366 6.6779C4.88666 6.6779 4.88015 6.67824 4.87314 6.67824C5.07983 7.02258 5.2139 7.4151 5.25419 7.83466C6.70449 7.89449 8.52928 8.30519 10.5419 9.00316C10.3607 10.1944 10.2287 11.4438 10.147 12.7116C8.98604 13.4632 7.89848 14.2406 6.90843 15.0256C6.11137 14.3566 5.39339 13.6864 4.77122 13.0272C4.01993 12.2314 3.44211 11.4825 3.0548 10.8183C2.87334 10.8557 2.68554 10.8755 2.49318 10.8755C2.22927 10.8755 1.97414 10.8375 1.73221 10.7684C2.42911 12.3035 3.98982 14.0494 6.01078 15.7623C5.24199 16.416 4.5454 17.0709 3.93609 17.7166C1.65348 20.135 0.851089 22.132 1.61538 23.4916C2.1236 24.3956 3.22646 24.854 4.8934 24.854C6.46638 24.854 8.4933 24.4323 10.7346 23.6709C11.1925 26.1389 11.8758 28.2793 12.7718 29.701C12.9403 29.3096 13.1966 28.9647 13.5153 28.6906C13.1729 28.06 12.848 27.2679 12.558 26.3374C12.2693 25.4118 12.0238 24.3842 11.8237 23.2802C12.9684 22.849 14.1563 22.3373 15.3588 21.7549C16.5613 22.3373 17.7491 22.849 18.8939 23.2801C18.6937 24.3842 18.4481 25.4118 18.1595 26.3374C17.8627 27.2896 17.5294 28.0976 17.178 28.7353C17.4923 29.019 17.7411 29.3739 17.8998 29.7739C18.8186 28.3531 19.5171 26.1811 19.983 23.6709C22.2241 24.4323 24.2512 24.854 25.8243 24.854C27.491 24.854 28.594 24.3956 29.1021 23.4915C29.8665 22.132 29.0641 20.135 26.7815 17.7166C26.1721 17.0709 25.4755 16.416 24.7068 15.7623ZM22.8942 15.7659C22.1899 16.3161 21.4356 16.8623 20.6405 17.3981C20.6591 16.8536 20.6688 16.3087 20.6688 15.766C20.6688 15.2232 20.6591 14.6781 20.6405 14.1336C21.4356 14.6693 22.1899 15.2157 22.8942 15.7659ZM11.1969 15.766C11.1969 14.9538 11.2172 14.152 11.2563 13.3658C11.9223 12.9466 12.6114 12.536 13.3193 12.1381C13.9999 11.7555 14.6814 11.3946 15.3589 11.0557C16.0362 11.3946 16.7177 11.7555 17.3982 12.1381C18.1063 12.536 18.7952 12.9466 19.4613 13.3657C19.5004 14.1519 19.5206 14.9537 19.5206 15.7661C19.5206 16.5782 19.5004 17.3799 19.4613 18.166C18.7951 18.5852 18.1061 18.9958 17.398 19.3939C16.7176 19.7763 16.0361 20.1373 15.3589 20.4761C14.6815 20.1373 13.9999 19.7763 13.3195 19.3938C12.6114 18.9957 11.9224 18.5851 11.2563 18.1659C11.2172 17.3799 11.1969 16.5781 11.1969 15.766ZM19.3696 11.9598C18.9088 11.6806 18.439 11.4059 17.9608 11.1371C17.5269 10.8932 17.0922 10.6579 16.658 10.4309C17.4816 10.051 18.2929 9.70729 19.0822 9.40349C19.2021 10.2238 19.2982 11.079 19.3696 11.9598ZM12.558 5.19454C13.348 2.66089 14.3949 1.14822 15.3588 1.14822C16.3227 1.14822 17.3696 2.66089 18.1595 5.19454C18.4481 6.12021 18.6937 7.14778 18.8938 8.25163C17.7491 8.68283 16.5612 9.19446 15.3588 9.77701C14.1563 9.19446 12.9685 8.68283 11.8237 8.25163C12.0239 7.14776 12.2694 6.12019 12.558 5.19454ZM11.6352 9.40341C12.4245 9.70721 13.236 10.051 14.0595 10.4309C13.6253 10.658 13.1907 10.8932 12.7568 11.1371C12.2786 11.4059 11.8086 11.6806 11.3479 11.9598C11.4193 11.079 11.5154 10.2238 11.6352 9.40341ZM10.0771 14.1337C10.0584 14.6782 10.0486 15.2232 10.0486 15.766C10.0486 16.3087 10.0584 16.8536 10.077 17.3981C9.28195 16.8623 8.52783 16.316 7.82344 15.766C8.52783 15.2157 9.28195 14.6694 10.0771 14.1337ZM4.89342 23.7058C3.70654 23.7058 2.89785 23.4298 2.6162 22.929C2.14397 22.0888 2.94947 20.4348 4.77115 18.5047C5.39454 17.8439 6.11449 17.1723 6.91365 16.5017C7.91728 17.2962 9.00877 18.0755 10.1468 18.815C10.2284 20.0845 10.3603 21.3357 10.542 22.5288C8.35908 23.2857 6.39616 23.7058 4.89342 23.7058ZM11.6352 22.1283C11.5153 21.3074 11.4192 20.4516 11.3477 19.5701C11.8133 19.8531 12.2837 20.1287 12.7569 20.3946C13.1907 20.6385 13.6254 20.8738 14.0597 21.1008C13.2361 21.4808 12.4245 21.8246 11.6352 22.1283ZM16.658 21.1008C17.0922 20.8738 17.5269 20.6385 17.9606 20.3948C18.4337 20.1288 18.9042 19.8532 19.3698 19.5702C19.2984 20.4516 19.2023 21.3074 19.0822 22.1282C18.2929 21.8246 17.4816 21.4808 16.658 21.1008ZM28.1013 22.929C27.8197 23.4298 27.011 23.7058 25.8243 23.7058C24.3214 23.7058 22.3585 23.2857 20.1756 22.5288C20.3571 21.3357 20.4893 20.0846 20.5707 18.815C21.7088 18.0756 22.8003 17.2963 23.8041 16.5017C24.6031 17.1723 25.323 17.8439 25.9466 18.5047C27.7681 20.4349 28.5737 22.0888 28.1013 22.929Z" fill="#3BDB38"/>
<path d="M4.74657 7.93465C4.74657 6.62599 3.68187 5.56137 2.37321 5.56137C1.06462 5.56137 0 6.62597 0 7.93465C0 9.24324 1.06462 10.3079 2.37321 10.3079C3.68187 10.3079 4.74657 9.24324 4.74657 7.93465ZM1.16702 7.93465C1.16702 7.26958 1.70811 6.7284 2.37321 6.7284C3.03836 6.7284 3.57954 7.26958 3.57954 7.93465C3.57954 8.59973 3.03836 9.14091 2.37321 9.14091C1.70811 9.14091 1.16702 8.59973 1.16702 7.93465Z" fill="#3BDB38"/>
<path d="M28.6262 5.56137C27.3176 5.56137 26.2529 6.62597 26.2529 7.93465C26.2529 9.24324 27.3175 10.3079 28.6262 10.3079C29.9349 10.3079 30.9995 9.24324 30.9995 7.93465C30.9995 6.62599 29.9349 5.56137 28.6262 5.56137ZM28.6262 9.14091C27.9611 9.14091 27.42 8.59973 27.42 7.93465C27.42 7.26958 27.9611 6.7284 28.6262 6.7284C29.2914 6.7284 29.8325 7.26958 29.8325 7.93465C29.8325 8.59973 29.2914 9.14091 28.6262 9.14091Z" fill="#3BDB38"/>
<path d="M15.3671 28.6692C14.0585 28.6692 12.9939 29.7338 12.9939 31.0424C12.9939 32.3511 14.0585 33.4157 15.3671 33.4157C16.6758 33.4157 17.7405 32.3511 17.7405 31.0424C17.7405 29.7338 16.6758 28.6692 15.3671 28.6692ZM15.3671 32.2487C14.702 32.2487 14.1609 31.7076 14.1609 31.0424C14.1609 30.3773 14.702 29.8362 15.3671 29.8362C16.0323 29.8362 16.5735 30.3773 16.5735 31.0424C16.5735 31.7076 16.0324 32.2487 15.3671 32.2487Z" fill="#3BDB38"/>
</svg>
