<svg width="34" height="34" viewBox="0 0 34 34" fill="none" xmlns="http://www.w3.org/2000/svg">
<ellipse cx="17" cy="17" rx="17" ry="16.5" fill="#3BDB38"/>
<path d="M16.8735 18.3487C17.7986 18.3487 18.5513 17.5961 18.5513 16.671C18.5513 15.7459 17.7986 14.9933 16.8735 14.9933C15.9483 14.9933 15.1958 15.7459 15.1958 16.671C15.1958 17.5961 15.9483 18.3487 16.8735 18.3487ZM16.8735 15.8083C17.3493 15.8083 17.7363 16.1953 17.7363 16.671C17.7363 17.1467 17.3493 17.5338 16.8735 17.5338C16.3977 17.5338 16.0107 17.1467 16.0107 16.671C16.0107 16.1953 16.3977 15.8083 16.8735 15.8083Z" fill="white"/>
<path d="M23.5347 16.6872C24.9529 15.4851 26.0517 14.2602 26.5544 13.1797C26.428 13.2053 26.2971 13.2188 26.1632 13.2188C25.9853 13.2188 25.813 13.1947 25.6488 13.1502C25.374 13.6286 24.9583 14.1698 24.4145 14.7461C23.9729 15.2139 23.4633 15.6895 22.8976 16.1644C22.1949 15.6072 21.423 15.0553 20.5989 14.5219C20.541 13.6222 20.4474 12.7355 20.3187 11.89C21.8092 11.3731 23.1543 11.0783 24.2041 11.0567C24.233 10.7612 24.3275 10.4849 24.4728 10.2422C24.4247 10.2411 24.3771 10.2396 24.3276 10.2396C23.2112 10.2396 21.7726 10.539 20.182 11.0792C19.5938 7.90994 18.4826 5.5 16.9 5.5C15.3174 5.5 14.2061 7.90993 13.6181 11.0792C12.0274 10.539 10.5888 10.2396 9.47241 10.2396C9.46745 10.2396 9.46283 10.2399 9.45785 10.2399C9.60455 10.4843 9.6997 10.7628 9.7283 11.0606C10.7576 11.1031 12.0528 11.3946 13.4813 11.89C13.3526 12.7355 13.2589 13.6222 13.201 14.522C12.377 15.0554 11.6051 15.6072 10.9024 16.1644C10.3367 15.6895 9.82709 15.2139 9.38551 14.746C8.85229 14.1812 8.44218 13.6497 8.16729 13.1782C8.03849 13.2048 7.90521 13.2188 7.76868 13.2188C7.58137 13.2188 7.40029 13.1919 7.22858 13.1429C7.72321 14.2324 8.83091 15.4715 10.2653 16.6872C9.71964 17.1512 9.22524 17.616 8.79278 18.0743C7.1727 19.7908 6.60321 21.2081 7.14566 22.1731C7.50637 22.8147 8.28912 23.1401 9.47223 23.1401C10.5886 23.1401 12.0272 22.8407 13.618 22.3004C13.943 24.052 14.4279 25.5712 15.0639 26.5802C15.1835 26.3024 15.3654 26.0576 15.5916 25.863C15.3486 25.4155 15.118 24.8533 14.9122 24.1929C14.7073 23.536 14.533 22.8066 14.391 22.0231C15.2034 21.717 16.0466 21.3538 16.9 20.9404C17.7535 21.3538 18.5965 21.717 19.409 22.023C19.2669 22.8066 19.0926 23.536 18.8878 24.1929C18.6771 24.8687 18.4406 25.4422 18.1912 25.8948C18.4143 26.0962 18.5908 26.348 18.7035 26.6319C19.3556 25.6235 19.8514 24.0819 20.182 22.3003C21.7727 22.8407 23.2114 23.1401 24.3279 23.1401C25.5108 23.1401 26.2937 22.8147 26.6543 22.173C27.1968 21.2081 26.6273 19.7908 25.0073 18.0743C24.5747 17.616 24.0803 17.1512 23.5347 16.6872ZM22.2482 16.6898C21.7483 17.0803 21.213 17.468 20.6487 17.8483C20.6619 17.4618 20.6688 17.075 20.6688 16.6899C20.6688 16.3046 20.6619 15.9178 20.6487 15.5313C21.213 15.9115 21.7483 16.2993 22.2482 16.6898ZM13.9461 16.6899C13.9461 16.1134 13.9605 15.5443 13.9883 14.9863C14.461 14.6888 14.9501 14.3974 15.4525 14.115C15.9355 13.8434 16.4192 13.5873 16.9001 13.3468C17.3808 13.5873 17.8645 13.8434 18.3475 14.115C18.85 14.3974 19.339 14.6888 19.8117 14.9863C19.8395 15.5442 19.8538 16.1133 19.8538 16.6899C19.8538 17.2663 19.8395 17.8353 19.8117 18.3932C19.3389 18.6908 18.8499 18.9822 18.3474 19.2647C17.8644 19.5362 17.3808 19.7924 16.9001 20.0328C16.4193 19.7924 15.9355 19.5362 15.4526 19.2647C14.9501 18.9821 14.4611 18.6907 13.9883 18.3932C13.9605 17.8353 13.9461 17.2663 13.9461 16.6899ZM19.7467 13.9884C19.4196 13.7902 19.0862 13.5953 18.7468 13.4045C18.4388 13.2314 18.1303 13.0644 17.8221 12.9033C18.4066 12.6336 18.9825 12.3897 19.5427 12.1741C19.6278 12.7563 19.696 13.3633 19.7467 13.9884ZM14.9122 9.18681C15.4728 7.38856 16.2159 6.31494 16.9 6.31494C17.5841 6.31494 18.3272 7.38856 18.8878 9.18681C19.0926 9.8438 19.2669 10.5731 19.409 11.3566C18.5965 11.6626 17.7534 12.0257 16.9 12.4392C16.0466 12.0257 15.2035 11.6626 14.391 11.3566C14.5331 10.5731 14.7073 9.84379 14.9122 9.18681ZM14.2572 12.174C14.8174 12.3897 15.3933 12.6337 15.9779 12.9033C15.6697 13.0644 15.3612 13.2314 15.0533 13.4045C14.7138 13.5953 14.3803 13.7902 14.0533 13.9884C14.104 13.3633 14.1722 12.7563 14.2572 12.174ZM13.1514 15.5314C13.1381 15.9178 13.1311 16.3046 13.1311 16.6899C13.1311 17.075 13.1381 17.4618 13.1513 17.8482C12.587 17.468 12.0518 17.0802 11.5518 16.6898C12.0518 16.2993 12.587 15.9116 13.1514 15.5314ZM9.47224 22.3251C8.62986 22.3251 8.05589 22.1293 7.85599 21.7738C7.52083 21.1774 8.09253 20.0036 9.38546 18.6336C9.82791 18.1647 10.3389 17.688 10.9061 17.212C11.6184 17.7759 12.3931 18.329 13.2008 18.8539C13.2587 19.7549 13.3524 20.6429 13.4813 21.4897C11.932 22.0269 10.5388 22.3251 9.47224 22.3251ZM14.2572 21.2055C14.1721 20.6229 14.1039 20.0155 14.0531 19.3898C14.3836 19.5907 14.7175 19.7863 15.0533 19.975C15.3612 20.1481 15.6697 20.3151 15.978 20.4762C15.3934 20.7459 14.8174 20.9899 14.2572 21.2055ZM17.8221 20.4762C18.1303 20.3151 18.4388 20.1481 18.7467 19.9751C19.0824 19.7863 19.4164 19.5908 19.7468 19.3899C19.6961 20.0155 19.6279 20.6229 19.5427 21.2055C18.9825 20.9899 18.4066 20.7459 17.8221 20.4762ZM25.944 21.7738C25.7441 22.1293 25.1701 22.3251 24.3279 22.3251C23.2612 22.3251 21.868 22.0269 20.3187 21.4897C20.4476 20.6429 20.5413 19.755 20.5992 18.8539C21.4069 18.3291 22.1816 17.776 22.894 17.212C23.4611 17.688 23.9721 18.1646 24.4147 18.6336C25.7074 20.0036 26.2792 21.1774 25.944 21.7738Z" fill="white"/>
<path d="M9.36886 11.1316C9.36886 10.2028 8.6132 9.44716 7.68438 9.44716C6.75561 9.44716 6 10.2028 6 11.1316C6 12.0604 6.75561 12.816 7.68438 12.816C8.6132 12.816 9.36886 12.0604 9.36886 11.1316ZM6.82829 11.1316C6.82829 10.6596 7.21233 10.2755 7.68438 10.2755C8.15647 10.2755 8.54057 10.6596 8.54057 11.1316C8.54057 11.6036 8.15647 11.9877 7.68438 11.9877C7.21233 11.9877 6.82829 11.6036 6.82829 11.1316Z" fill="white"/>
<path d="M26.3158 9.44716C25.387 9.44716 24.6313 10.2028 24.6313 11.1316C24.6313 12.0604 25.3869 12.816 26.3158 12.816C27.2446 12.816 28.0002 12.0604 28.0002 11.1316C28.0002 10.2028 27.2446 9.44716 26.3158 9.44716ZM26.3158 11.9877C25.8437 11.9877 25.4596 11.6036 25.4596 11.1316C25.4596 10.6596 25.8437 10.2755 26.3158 10.2755C26.7879 10.2755 27.1719 10.6596 27.1719 11.1316C27.1719 11.6036 26.7879 11.9877 26.3158 11.9877Z" fill="white"/>
<path d="M16.907 25.8479C15.9783 25.8479 15.2227 26.6035 15.2227 27.5323C15.2227 28.4611 15.9783 29.2167 16.907 29.2167C17.8359 29.2167 18.5916 28.4611 18.5916 27.5323C18.5916 26.6035 17.8359 25.8479 16.907 25.8479ZM16.907 28.3884C16.435 28.3884 16.0509 28.0044 16.0509 27.5323C16.0509 27.0602 16.435 26.6762 16.907 26.6762C17.3792 26.6762 17.7633 27.0602 17.7633 27.5323C17.7633 28.0044 17.3792 28.3884 16.907 28.3884Z" fill="white"/>
</svg>
