<svg width="34" height="34" viewBox="0 0 34 34" fill="none" xmlns="http://www.w3.org/2000/svg">
<ellipse cx="17" cy="17" rx="17" ry="16.5" fill="#3BDB38"/>
<g clip-path="url(#clip0_1644_406)">
<path d="M16.1535 9.31875C16.2051 9.31875 16.2695 9.34453 16.3254 9.42188C16.0762 9.06523 16.6047 9.21992 16.6348 8.88047C16.9355 8.65703 16.8281 8.51094 16.9141 8.50234L17.0086 8.425C16.8238 8.49375 16.7594 8.50664 16.7078 8.50664H16.6219C16.5574 8.50664 16.45 8.51953 16.1965 8.59687C15.6164 8.63984 15.1996 9.26719 15.002 9.28438C14.8 9.3918 14.8086 9.41328 14.8559 9.41328C14.8688 9.41328 14.8859 9.40898 14.9031 9.40898C14.9203 9.40898 14.9332 9.40469 14.9461 9.40469C14.9934 9.40469 14.9805 9.42617 14.7055 9.55508C14.7699 9.57227 14.2242 9.81289 14.2199 10.191C14.2027 10.3371 14.2629 10.4359 14.3617 10.4359C14.4477 10.4359 14.5551 10.3715 14.6711 10.2082C15.0578 9.76133 15.8742 9.71836 16.2266 9.44766C16.0074 9.43047 16.0504 9.31875 16.1535 9.31875V9.31875ZM14.1898 9.46914C14.1512 9.46914 14.2027 9.42188 14.2586 9.37461C14.3187 9.32734 14.3875 9.28008 14.3875 9.28008L14.3832 9.28438C14.6152 9.19414 14.4734 9.17266 14.598 9.1125H14.5895C14.5637 9.1125 14.6109 9.07812 14.6539 9.03945C14.6969 9.00508 14.7355 8.96641 14.6969 8.96641C14.6754 8.96641 14.6195 8.9793 14.525 9.01797C14.5551 8.975 14.6711 8.94492 14.8344 8.85469C14.598 8.93203 14.4133 8.9793 14.3918 8.9793C14.3746 8.9793 14.4734 8.94492 14.7699 8.85469C14.7828 8.85469 14.7957 8.85898 14.8043 8.85898C14.8344 8.85898 14.8473 8.85039 14.843 8.8418C14.8387 8.8332 14.8215 8.82891 14.7914 8.82891C14.366 8.86328 14.048 9.12969 14.1426 9.16406C14.1984 9.14687 14.2371 9.13828 14.2629 9.13828C14.3188 9.13828 14.293 9.18555 14.1812 9.2543C14.2328 9.37461 13.3219 9.68398 13.2188 9.7957C13.2703 9.76562 13.3047 9.75703 13.3219 9.75703C13.3906 9.75703 13.3004 9.89023 13.2102 9.95469C13.266 10.0063 13.309 10.0234 13.3434 10.0234C13.4336 10.0234 13.4723 9.89883 13.5496 9.86016C13.5668 9.89453 13.584 9.91172 13.6055 9.91172C13.6785 9.91172 13.7687 9.73125 13.8418 9.63672C13.8633 9.6582 13.8891 9.67539 13.9234 9.67539C13.9922 9.67539 14.0953 9.61953 14.2586 9.46055C14.2242 9.46484 14.1984 9.46914 14.1898 9.46914V9.46914ZM13.2016 10.2598C13.0469 10.3543 12.9652 10.393 12.9309 10.393C12.8664 10.393 12.9523 10.2727 13.0297 10.148C13.107 10.0277 13.1758 9.90742 13.077 9.90742C13.0297 9.90742 12.9437 9.9332 12.8062 10.002C12.4324 10.2512 11.8008 10.9387 11.5215 10.9387H11.4957C11.9469 10.6078 11.8137 9.95898 12.4453 9.79141C13.0684 9.43477 13.4938 9.54648 14.048 9.13828C13.8848 9.21992 13.6441 9.31016 13.5883 9.31016C13.5539 9.31016 13.6055 9.26719 13.8289 9.15977C13.8074 9.16406 13.7902 9.16836 13.7773 9.16836C13.627 9.16836 14.7656 8.76016 14.8215 8.75156C14.3531 8.81602 13.5969 9.20703 13.4937 9.20703C13.4809 9.20703 13.4809 9.20273 13.4809 9.19414C13.498 9.18125 13.498 9.17266 13.4809 9.17266C13.425 9.17266 13.193 9.25 12.9566 9.32734C12.7246 9.40469 12.4883 9.48633 12.4367 9.48633C12.4195 9.48633 12.4195 9.47773 12.4453 9.46055C10.4172 10.6121 8.72422 12.5543 8.1957 14.8574C8.41484 15.3602 8.26445 16.3184 8.62539 16.5977C9.03789 16.9457 8.27305 17.9555 8.475 18.5785C8.68125 19.7043 9.5707 20.4734 9.66523 21.625C9.82852 22.4156 10.4258 23.3824 10.675 23.8852C10.8641 24.0742 11.384 24.6199 11.4742 24.6199C11.5086 24.6199 11.4871 24.5383 11.3496 24.3191C11.2637 24.0742 10.7652 23.434 11.0059 23.434C11.0188 23.434 11.0316 23.434 11.0488 23.4383C10.7523 23.1375 11.7063 23.2191 11.0402 22.8109C10.9629 22.7164 10.9457 22.6863 10.9629 22.6863C10.9844 22.6863 11.0445 22.7207 11.1133 22.7551C11.1863 22.7895 11.2723 22.8238 11.341 22.8238C11.4484 22.8238 11.5215 22.7508 11.4785 22.4844C11.4957 22.493 11.5129 22.493 11.5258 22.493C11.6375 22.493 11.5988 22.2738 11.6074 22.0547C11.616 21.8355 11.6719 21.6164 11.9727 21.6164C12.007 21.6164 12.0457 21.6207 12.0844 21.625C12.7805 21.2469 12.1746 20.2027 12.9738 19.8203C12.9438 18.9523 11.7793 18.9094 11.341 18.557C11.268 18.6 11.1992 18.6129 11.1305 18.6129C11.0531 18.6129 10.9844 18.5957 10.9242 18.5742C10.8641 18.557 10.8082 18.5355 10.7695 18.5355C10.7609 18.5355 10.7523 18.5355 10.7438 18.5398C11.4914 18.3422 10.9457 17.3023 10.327 17.3023H10.284C10.2367 16.8512 10.0047 17.023 9.97891 16.6492C9.94023 16.6707 9.90156 16.6793 9.86289 16.6793C9.75977 16.6793 9.66523 16.6063 9.58359 16.5375C9.50195 16.4645 9.4332 16.3957 9.37305 16.3957C9.32578 16.3957 9.28281 16.443 9.24414 16.5805C9.28711 16.3699 9.27422 16.3012 9.23125 16.3012C9.18828 16.3012 9.11094 16.3742 9.025 16.4473C8.94336 16.5203 8.84883 16.5934 8.77578 16.5934H8.7543C8.25156 16.2367 8.75859 15.6051 8.49219 15.1195C8.66406 14.9348 8.73281 14.6211 8.65547 14.6211C8.6168 14.6211 8.53945 14.6984 8.41914 14.909C8.24727 14.4707 8.70273 13.4781 9.08945 13.4223C9.10234 13.4223 9.11094 13.418 9.12383 13.418C9.19258 13.418 9.26133 13.4523 9.32148 13.5254C9.35586 13.7273 9.26992 14.1527 9.3043 14.1527C9.32148 14.1527 9.35586 14.0668 9.4418 13.8434C9.55352 13.332 10.3355 12.9625 10.4172 12.6488C10.4215 12.6531 10.4215 12.6531 10.4258 12.6531C10.516 12.6531 11.0961 12.1418 11.3496 12.0859C11.4484 11.9871 11.5172 11.9527 11.5688 11.9527C11.6246 11.9527 11.6547 11.9957 11.6762 12.0344C11.6977 12.0773 11.7148 12.116 11.7363 12.116C11.7535 12.116 11.775 12.0902 11.8137 12.0172C11.6805 11.7551 12.0242 11.5059 11.9297 11.5059C11.8953 11.5059 11.7922 11.5402 11.5816 11.6262C11.5473 11.6434 11.5301 11.6477 11.5215 11.6477C11.4957 11.6477 11.5988 11.5789 11.7492 11.5102C11.8996 11.4414 12.0887 11.3727 12.2477 11.3727C12.325 11.3727 12.3937 11.3898 12.4453 11.4328C13.1113 11.2738 12.7461 11.0547 12.7805 11.0547H12.7891C12.9781 10.943 12.9223 10.5219 13.2016 10.2598V10.2598ZM10.2238 12.0172C10.2152 12.0172 10.2539 11.9613 10.3828 11.8023C10.6492 11.6047 10.8641 11.4715 10.6191 11.3426C10.7266 11.2953 10.8297 11.2395 10.9285 11.1793C10.9242 11.3898 10.748 11.9012 10.6535 11.9012C10.632 11.9012 10.6105 11.8711 10.602 11.8066C10.6578 11.7078 10.6621 11.6691 10.6406 11.6691C10.6062 11.6691 10.5074 11.7551 10.4129 11.8453C10.3184 11.927 10.2324 12.0172 10.2238 12.0172V12.0172ZM10.4688 12.1332C10.3527 12.1332 10.3742 12.0602 10.7309 11.9871C10.8855 11.9656 10.7652 11.9742 10.95 11.9313C10.7695 12.0773 10.5676 12.1332 10.4688 12.1332V12.1332ZM17.1504 11.6992C17.202 11.6906 17.2406 11.6906 17.2707 11.6906C17.3953 11.6906 17.3395 11.7422 17.2664 11.7937C17.1934 11.8453 17.1031 11.8969 17.1547 11.8969C17.1848 11.8969 17.2664 11.8797 17.434 11.8324C18.2805 11.7723 17.1031 11.0547 17.2922 10.8141L17.2406 10.7969C16.8926 11.2395 17.4727 11.248 17.1504 11.6992V11.6992ZM16.798 11.7164C16.8582 11.7164 16.9355 11.6477 17.0172 11.4543C17.1289 11.3211 17.0816 11.3039 16.9613 11.2395C16.6305 11.3254 16.6605 11.7164 16.798 11.7164ZM19.7629 13.0785C19.75 13.0785 19.7414 13.0828 19.7328 13.0871C19.7672 13.0957 19.8016 13.1043 19.8359 13.1043C19.8016 13.0871 19.7801 13.0785 19.7629 13.0785ZM25.5336 14.1484C25.6066 14.3074 25.6453 14.3719 25.6496 14.3719C25.6797 14.3719 25.1082 12.9797 24.8719 12.7305C23.6387 10.7023 21.6105 9.15117 19.2988 8.57109H19.2945C19.2344 8.57109 19.3031 8.60117 19.3848 8.63125C19.4664 8.66133 19.5652 8.69141 19.5652 8.69141C19.5652 8.69141 19.5008 8.66992 19.3031 8.61406C19.084 8.54961 18.8605 8.50234 18.6328 8.48516C18.5941 8.49805 19.5738 8.88477 20.2313 9.08672C20.0121 9.01797 19.7844 8.95781 19.7285 8.95781C19.6898 8.95781 19.7285 8.98359 19.8875 9.05234C19.6941 8.99648 19.6125 8.9707 19.6039 8.9707C19.591 8.9707 19.8617 9.06094 20.1152 9.15117C20.373 9.24141 20.618 9.33164 20.5492 9.33164C20.532 9.33164 20.4848 9.32305 20.4117 9.31016C20.6309 9.43047 20.7082 9.47773 20.6953 9.47773C20.6738 9.47773 20.4031 9.34883 20.1238 9.21992C19.8488 9.09102 19.5695 8.96211 19.5309 8.96211C19.5094 8.96211 19.5652 9.00508 19.7543 9.1168C20.0121 9.22852 20.2699 9.34023 20.1969 9.34023C20.1625 9.34023 20.0637 9.31875 19.8703 9.26289C20.3 9.48203 19.5652 9.39609 19.8145 9.69258C19.677 9.56367 19.6211 9.5207 19.6082 9.5207C19.5953 9.5207 19.6297 9.57227 19.6641 9.62383C19.6984 9.67539 19.7242 9.72695 19.6941 9.72695H19.6855C19.9863 10.0535 19.475 9.76133 19.8402 10.0535C19.5652 9.92891 19.0969 9.72266 19.3074 9.72266C19.359 9.72266 19.4578 9.73555 19.6125 9.76992C19.3332 9.44336 18.5426 9.43047 18.5254 9.3918C18.3277 9.40469 18.3234 9.55508 18.3578 9.83008C18.3535 10.2641 17.9281 10.2727 17.984 10.5219C17.984 10.5176 17.9883 10.5176 17.9883 10.5176C17.9969 10.5176 18.0012 10.6035 18.027 10.6937C18.057 10.7797 18.1086 10.8699 18.2203 10.8699C18.2805 10.8699 18.3578 10.8441 18.4523 10.7797C18.5855 11.0203 18.7059 11.1062 18.8004 11.1062C18.9422 11.1062 19.0281 10.9129 19.0195 10.7367C18.8648 10.6508 18.6629 9.9375 18.8863 9.9375C18.9207 9.9375 18.9637 9.95469 19.0195 9.99336C18.6715 10.8484 20.3945 10.277 19.4191 10.668C19.6383 10.9559 19.2816 10.943 19.3848 11.291C19.2172 11.3383 19.0324 11.3812 18.8691 11.3812C18.6285 11.3812 18.4438 11.2781 18.4652 10.9172C18.1645 11.0762 18.766 11.6133 18.1688 11.6133H18.1344C17.8465 12.1418 16.768 11.9613 17.6145 12.5199C17.6617 12.7648 17.507 12.8078 17.3094 12.8078C17.2578 12.8078 17.202 12.8035 17.1461 12.7992C17.0902 12.7949 17.0344 12.7949 16.9828 12.7949C16.7594 12.7949 16.6004 12.8508 16.7379 13.1988C16.6391 13.5598 16.8711 13.7188 17.1547 13.7188C17.4984 13.7188 17.9195 13.4953 17.9496 13.1258C18.1344 12.8465 18.3707 12.7305 18.6156 12.7305C19.0023 12.7305 19.4105 13.0227 19.677 13.3836C19.6984 13.418 19.7156 13.4309 19.7242 13.4309C19.7457 13.4309 19.7242 13.3449 19.7156 13.259C19.707 13.1902 19.707 13.1215 19.7328 13.1C19.3504 12.9926 19.0582 12.5285 19.1871 12.5285C19.2301 12.5285 19.3203 12.5801 19.4664 12.7176H19.4879C19.7285 12.7176 19.9176 12.9066 20.0637 13.0957C20.2141 13.2848 20.3258 13.4738 20.4246 13.4738C20.4633 13.4738 20.502 13.4395 20.5363 13.3621C20.5191 13.3363 20.4762 13.2633 20.4547 13.1902C20.4289 13.1 20.4289 13.0098 20.5449 13.0098C20.5922 13.0098 20.6566 13.027 20.7469 13.0613C21.0391 12.984 20.5621 12.2234 20.9488 12.2234C20.9875 12.2234 21.0348 12.232 21.0949 12.2492C21.0906 12.3824 21.1508 12.4297 21.2066 12.4297C21.3184 12.4297 21.4301 12.2707 21.1594 12.2234C21.2625 12.1246 21.3227 12.0859 21.3656 12.0859C21.516 12.0859 21.3957 12.5844 21.9156 12.5844C22.0918 13.0012 20.3859 12.6145 20.9316 13.4137C21.0563 13.5039 21.2109 13.5211 21.3613 13.5211C21.4086 13.5211 21.4516 13.5211 21.4945 13.5168C21.5375 13.5168 21.5805 13.5125 21.6191 13.5125C21.8855 13.5125 22.0746 13.577 21.9586 14.127C21.8168 14.2301 21.6578 14.2645 21.4945 14.2645C21.3484 14.2645 21.2023 14.2387 21.0605 14.2129C20.9188 14.1871 20.7813 14.1613 20.6566 14.1613C20.4633 14.1613 20.3086 14.2258 20.2141 14.4492C19.7113 14.243 19.0496 14.2344 19.1141 13.6113C18.2375 13.7359 17.3223 13.6715 16.6777 14.2086C16.6391 14.9949 15.2898 15.2484 15.6164 16.1422C15.2254 16.9672 16.0891 18.123 16.9699 18.123C17 18.123 17.0344 18.123 17.0645 18.1187C17.5457 18.1145 18.0312 17.8996 18.4566 17.8996C18.6758 17.8996 18.8734 17.9555 19.0453 18.1273C19.084 18.123 19.1184 18.1187 19.1484 18.1187C19.8059 18.1187 18.9379 19.1629 19.7242 19.3391C20.4375 20.0781 19.2859 20.8387 19.8488 21.5477C19.909 22.102 20.184 22.566 20.184 23.1074C20.257 23.116 20.3258 23.1203 20.3988 23.1203C21.3055 23.1203 21.8727 22.3297 22.4055 21.7324C22.2422 20.8387 23.673 20.6625 23.1832 19.6613C22.9555 18.5656 24.2617 17.9168 24.1887 16.8211C24.2016 16.6664 24.1586 16.6191 24.0941 16.6191C24.0297 16.6191 23.9352 16.6664 23.8449 16.7094C23.7504 16.7566 23.6473 16.7996 23.5656 16.7996C23.4582 16.7996 23.3766 16.7266 23.368 16.4859C22.7363 15.8973 22.4484 15.098 21.8598 14.4492C22.6246 14.8188 23.0586 15.6523 23.4109 16.4086C23.441 16.4172 23.4711 16.4215 23.5055 16.4215C24.1285 16.4215 24.9965 14.9305 24.0512 14.5695C23.9996 14.7113 23.9309 14.7629 23.8492 14.7629C23.7074 14.7629 23.5441 14.591 23.4281 14.4234C23.3121 14.2516 23.252 14.0797 23.3164 14.0797C23.3594 14.0797 23.4539 14.1484 23.6172 14.3289C23.802 14.4449 23.9824 14.475 24.1715 14.475C24.3562 14.475 24.5453 14.4449 24.743 14.4277C24.9922 14.5266 25.0996 14.8445 25.177 14.8445C25.1898 14.8445 25.207 14.8316 25.2199 14.8016C25.4176 15.2742 25.6453 16.1164 25.8516 16.3441C25.7441 15.6223 25.7184 14.8574 25.5336 14.1484V14.1484ZM23.1359 13.1559C22.6504 13.0312 22.4914 12.4297 22.109 12.0816C22.1047 11.9871 22.2465 12.0043 22.2121 11.8453C22.7277 12.0043 22.5602 12.1633 22.5129 12.1934C22.702 12.507 23.2305 12.7219 23.1359 13.1559ZM16.4629 9.88594C15.9945 10.0234 15.9301 9.87305 16.0117 10.1609C16.0461 10.1867 16.1105 10.1953 16.175 10.1953C16.4027 10.1996 16.7121 10.0664 16.4629 9.88594ZM23.3422 21.7238C23.9566 21.2039 24.034 20.5852 24.0641 19.9578C23.7891 20.4949 22.9727 21.0879 23.3422 21.7238ZM20.5449 13.3449C20.5406 13.3492 20.5406 13.3492 20.5406 13.3535C20.5449 13.3621 20.5492 13.3621 20.5492 13.3621C20.5492 13.3621 20.5492 13.3578 20.5449 13.3449V13.3449ZM17 6.5C10.9242 6.5 6 11.4242 6 17.5C6 23.5758 10.9242 28.5 17 28.5C23.0758 28.5 28 23.5758 28 17.5C28 11.4242 23.0758 6.5 17 6.5ZM17 27.6535C11.3926 27.6535 6.84648 23.1074 6.84648 17.5C6.84648 11.8926 11.3926 7.34648 17 7.34648C22.6074 7.34648 27.1535 11.8926 27.1535 17.5C27.1535 23.1074 22.6074 27.6535 17 27.6535Z" fill="white"/>
</g>
<defs>
<clipPath id="clip0_1644_406">
<rect width="22" height="22" fill="white" transform="translate(6 6.5)"/>
</clipPath>
</defs>
</svg>
