<svg width="34" height="34" viewBox="0 0 34 34" fill="none" xmlns="http://www.w3.org/2000/svg">
<ellipse cx="17" cy="17" rx="17" ry="16.5" fill="#3BDB38"/>
<path d="M27.4 11.0904V17.3883C27.4 17.5449 27.3385 17.695 27.229 17.8058C27.1195 17.9165 26.971 17.9787 26.8162 17.9787C26.6614 17.9787 26.5129 17.9165 26.4034 17.8058C26.2939 17.695 26.2324 17.5449 26.2324 17.3883V12.5173L17.8841 20.9505C17.8314 21.0065 17.768 21.051 17.6978 21.0815C17.6275 21.1119 17.5519 21.1276 17.4755 21.1276C17.399 21.1276 17.3234 21.1119 17.2532 21.0815C17.1829 21.051 17.1195 21.0065 17.0668 20.9505L13.5835 17.4375L6.98659 24.0994C6.93292 24.1537 6.86921 24.1968 6.79909 24.2261C6.72898 24.2555 6.65382 24.2706 6.57793 24.2706C6.50203 24.2706 6.42688 24.2555 6.35677 24.2261C6.28665 24.1968 6.22294 24.1537 6.16927 24.0994C6.11561 24.0452 6.07304 23.9807 6.04399 23.9098C6.01495 23.8389 6 23.7629 6 23.6861C6 23.6094 6.01495 23.5334 6.04399 23.4625C6.07304 23.3915 6.11561 23.3271 6.16927 23.2728L13.1748 16.1877C13.2275 16.1318 13.2909 16.0872 13.3612 16.0568C13.4314 16.0263 13.5071 16.0106 13.5835 16.0106C13.6599 16.0106 13.7355 16.0263 13.8058 16.0568C13.876 16.0872 13.9394 16.1318 13.9921 16.1877L17.4755 19.7008L25.4054 11.6808H20.589C20.4342 11.6808 20.2857 11.6186 20.1762 11.5079C20.0668 11.3972 20.0052 11.247 20.0052 11.0904C20.0052 10.9338 20.0668 10.7837 20.1762 10.6729C20.2857 10.5622 20.4342 10.5 20.589 10.5H26.8162C26.971 10.5 27.1195 10.5622 27.229 10.6729C27.3385 10.7837 27.4 10.9338 27.4 11.0904Z" fill="white"/>
</svg>
