<svg width="62" height="62" viewBox="0 0 62 62" fill="none" xmlns="http://www.w3.org/2000/svg">
<path fill-rule="evenodd" clip-rule="evenodd" d="M30.9258 45.94C30.5738 45.9382 30.2371 45.825 29.9897 45.6253C29.7424 45.4256 29.6047 45.1557 29.6069 44.8751L29.8041 19.9152L21.4 26.5338C21.1492 26.7313 20.8103 26.8412 20.4579 26.8395C20.1054 26.8377 19.7682 26.7244 19.5206 26.5244C19.2729 26.3244 19.135 26.0542 19.1372 25.7732C19.1395 25.4922 19.2816 25.2234 19.5324 25.0259L30.2178 16.6132C30.3419 16.5153 30.489 16.4379 30.6506 16.3853C30.8123 16.3328 30.9854 16.3062 31.16 16.3071C31.3346 16.3079 31.5072 16.3363 31.6681 16.3904C31.8289 16.4446 31.9748 16.5235 32.0973 16.6227L42.6488 25.142C42.8965 25.342 43.0344 25.6122 43.0322 25.8932C43.03 26.1742 42.8878 26.4431 42.637 26.6405C42.3862 26.838 42.0473 26.9479 41.6948 26.9461C41.3423 26.9444 41.0052 26.831 40.7575 26.6311L32.4587 19.9285L32.2615 44.8884C32.2593 45.1691 32.1173 45.4375 31.8668 45.6347C31.6163 45.832 31.2779 45.9418 30.9258 45.94Z" fill="white"/>
<circle cx="31" cy="31" r="30.5" stroke="white"/>
</svg>
