<svg width="107" height="27" viewBox="0 0 107 27" fill="none" xmlns="http://www.w3.org/2000/svg">
<g filter="url(#filter0_d_1644_411)">
<path d="M12 13C12 12.4477 12.4477 12 13 12H94C94.5523 12 95 12.4477 95 13V14C95 14.5523 94.5523 15 94 15H13C12.4477 15 12 14.5523 12 14V13Z" fill="white"/>
</g>
<g filter="url(#filter1_d_1644_411)">
<path d="M12 13C12 12.4477 12.4477 12 13 12H94C94.5523 12 95 12.4477 95 13V14C95 14.5523 94.5523 15 94 15H13C12.4477 15 12 14.5523 12 14V13Z" fill="white"/>
</g>
<defs>
<filter id="filter0_d_1644_411" x="0" y="0" width="107" height="27" filterUnits="userSpaceOnUse" color-interpolation-filters="sRGB">
<feFlood flood-opacity="0" result="BackgroundImageFix"/>
<feColorMatrix in="SourceAlpha" type="matrix" values="0 0 0 0 0 0 0 0 0 0 0 0 0 0 0 0 0 0 127 0" result="hardAlpha"/>
<feOffset/>
<feGaussianBlur stdDeviation="6"/>
<feComposite in2="hardAlpha" operator="out"/>
<feColorMatrix type="matrix" values="0 0 0 0 1 0 0 0 0 1 0 0 0 0 1 0 0 0 1 0"/>
<feBlend mode="normal" in2="BackgroundImageFix" result="effect1_dropShadow_1644_411"/>
<feBlend mode="normal" in="SourceGraphic" in2="effect1_dropShadow_1644_411" result="shape"/>
</filter>
<filter id="filter1_d_1644_411" x="0" y="0" width="107" height="27" filterUnits="userSpaceOnUse" color-interpolation-filters="sRGB">
<feFlood flood-opacity="0" result="BackgroundImageFix"/>
<feColorMatrix in="SourceAlpha" type="matrix" values="0 0 0 0 0 0 0 0 0 0 0 0 0 0 0 0 0 0 127 0" result="hardAlpha"/>
<feOffset/>
<feGaussianBlur stdDeviation="6"/>
<feComposite in2="hardAlpha" operator="out"/>
<feColorMatrix type="matrix" values="0 0 0 0 1 0 0 0 0 1 0 0 0 0 1 0 0 0 1 0"/>
<feBlend mode="normal" in2="BackgroundImageFix" result="effect1_dropShadow_1644_411"/>
<feBlend mode="normal" in="SourceGraphic" in2="effect1_dropShadow_1644_411" result="shape"/>
</filter>
</defs>
</svg>
